<svg width="197" height="127" viewBox="0 0 197 127" fill="none" xmlns="http://www.w3.org/2000/svg">
<path d="M35 83.1222C22.7051 77.6295 2 73.1222 2 73.1222C2 73.1222 11.8588 67.2731 17.5 62.6222C23.2528 57.8793 26.4146 55.0012 31 49.1222C36.0049 42.7052 37.0608 37.9428 41.5 31.1222C45.6975 24.6729 47.5645 20.5689 53 15.1222C59.0453 9.06438 62.7044 4.72581 71 2.62215C75.9247 1.37332 79.0383 1.02941 84 2.12215C88.4354 3.099 91.0527 4.16529 94.5 7.12215C97.9121 10.0488 101 16.6222 101 16.6222C101 16.6222 109.829 7.71763 117 4.62215C123.048 2.01157 126.938 0.553626 133.5 1.12215C138.177 1.52733 140.905 2.32695 145 4.62215C149.102 6.92132 151.061 8.95147 154 12.6222C156.992 16.3581 158.079 18.9846 159.878 23.3281L160 23.6222C162.32 29.2231 161.34 33.1741 164 38.6222C166.69 44.1321 169.206 46.745 173.5 51.1222C180.705 58.4679 195.5 65.6222 195.5 65.6222C195.5 65.6222 184.853 76.0212 178.5 83.1222C171.282 91.1905 168.793 97.1068 161 104.622C152.764 112.565 148.2 118.069 137.5 122.122C126.87 126.149 119.727 126.403 108.5 124.622C97.1808 122.827 91.4497 118.81 81.5 113.122C72.5139 107.985 68.6736 103.271 60 97.6222C50.5424 91.4629 45.3049 87.7258 35 83.1222Z" fill="#BE0707" stroke="black"/>
<path d="M145.5 114.622C137.731 120.271 123.5 125.622 123.5 125.622C123.5 125.622 131.298 124.381 136 122.622C142.806 120.076 146.252 117.568 152 113.122C156.915 109.32 159.304 106.708 163.498 102.124L163.5 102.122C168.667 96.4739 170.597 92.5008 175.5 86.6221C182.668 78.0278 195 65.6221 195 65.6221C195 65.6221 183.597 73.6724 177.5 80.1221C174.357 83.4468 172.956 85.6305 170 89.1221C166.332 93.4538 164.366 95.9663 160.5 100.122C154.951 106.087 152.09 109.831 145.5 114.622Z" fill="#350000" stroke="#350000"/>
<path d="M63.9999 16.622C64.0674 18.9804 64.3571 21.1345 66.4999 22.122C68.7431 23.1557 72.4999 20.122 72.4999 20.122C72.4999 20.122 74.9691 18.6225 76.4999 19.122C77.428 19.4248 78.4999 20.622 78.4999 20.622L81.4999 24.622C82.6714 26.1841 85.219 26.2857 87.4999 25.622C89.7575 24.965 90.7687 23.6251 91.9999 21.622C94.0473 18.2907 94.0823 15.1976 92.4999 11.622C91.1018 8.46297 89.284 6.69352 85.9999 5.62197C82.7928 4.57559 80.4663 4.38249 76.9999 4.62197C73.4239 4.86903 68.9999 8.15646 68.4999 8.62207C68 9.08765 63.8992 13.1033 63.9999 16.622Z" fill="white" stroke="black"/>
<path d="M118.5 10.1221C116.497 12.3205 115.317 14.1536 115.5 17.1221C115.588 18.541 115.579 19.5394 116.5 20.6221C117.581 21.8928 118.833 22.0658 120.5 22.1221C122.602 22.1931 123.63 21.0848 125.5 20.1221C127.138 19.2789 129 17.9067 129.5 18.1221C130.261 18.4497 130.414 18.5363 131 19.1221C132.172 20.2937 132.639 21.1766 134 22.1221C135.727 23.3222 136.897 24.1221 139 24.1221C141.103 24.1221 142.513 23.6092 144 22.1221C145.487 20.6351 145.834 19.2186 146 17.1221C146.23 14.2284 145.235 12.4493 143.5 10.1221C142.005 8.11741 140.781 7.14598 138.5 6.12213C135.981 4.99147 134.26 5.02965 131.5 5.12213C128.706 5.21576 127.105 5.60596 124.5 6.62213C121.973 7.60811 120.327 8.11706 118.5 10.1221Z" fill="white" stroke="black"/>
<path d="M30 59.622C25.8192 63.2412 19.5 69.122 19.5 69.122C19.5 69.122 26.5249 67.9894 31 67.122C34.722 66.4005 36.7556 65.7162 40.5 65.122C43.9926 64.5677 45.9842 64.5026 49.5 64.122C53.2088 63.7204 55.4123 62.0999 59 63.122C62.2309 64.0424 63.1053 66.4172 66 68.122C68.2573 69.4514 69.4734 70.4298 72 71.122C74.4554 71.7947 75.9556 71.7082 78.5 71.622C80.2672 71.5621 81.2355 71.0081 83 71.122C86.148 71.3252 87.6905 72.6875 90.5 74.122C94.7456 76.2897 96.5411 78.4666 100.5 81.122C103.784 83.3244 105.509 84.7655 109 86.622C113.098 88.8013 115.469 90.1152 120 91.122C124.769 92.1817 127.638 92.1029 132.5 91.622C136.884 91.1883 139.304 90.4653 143.5 89.122C148.579 87.4957 151.377 86.2806 156 83.622C160.605 80.9741 162.932 79.0375 167 75.622C170.068 73.0458 174.5 68.622 174.5 68.622L154.5 66.122C154.5 66.122 144.188 54.1412 136.5 47.622C133.104 44.7423 131.659 42.2129 127.5 40.622C122.937 38.8764 119.765 39.0437 115 40.122C110.996 41.028 109.257 42.9677 105.5 44.622C102.215 46.0686 100.52 47.4149 97 48.122C92.5928 49.0074 89.8633 48.7031 85.5 47.622C81.0916 46.5297 79.2737 44.1589 75 42.622C70.276 40.9231 67.5156 39.4074 62.5 39.622C58.2393 39.8043 55.8676 40.8252 52 42.622C47.43 44.7451 45.503 47.0611 41.5 50.122C36.8725 53.6603 34.4042 55.8093 30 59.622Z" fill="black" stroke="black"/>
<path d="M41.4999 70.1221C41.4999 70.1221 38.9757 70.4838 38.9999 71.6221C39.0149 72.3259 39.9999 73.1221 39.9999 73.1221C39.9999 73.1221 42.7355 73.5068 44.4999 73.6221C47.0329 73.7876 48.4763 73.3487 50.9999 73.6221C54.2015 73.9689 55.9056 74.73 58.9999 75.6221C62.5598 76.6483 64.6542 77.031 67.9999 78.6221C71.5705 80.3201 73.2816 81.8255 76.4999 84.1221C80.7943 87.1866 82.6896 89.58 86.9999 92.6221C90.9401 95.4029 93.1308 97.0804 97.4999 99.1221C101.248 100.874 103.53 101.456 107.5 102.622C111.544 103.81 113.785 105.122 118 105.122C122.5 105.122 126.5 104.622 127.5 104.622C128.5 104.622 132.483 103.879 134 101.622C134.898 100.286 135.217 99.2175 135 97.6221C134.858 96.5802 135 96.1221 134 95.1221C133 94.1221 128.503 94.9679 125 94.6221C120.08 94.1364 117.289 93.8469 112.5 92.6221C107.053 91.2292 104.009 90.1745 98.9999 87.6221C93.9816 85.0651 91.9867 82.24 86.9999 79.6221C81.7989 76.8917 78.5381 76.08 72.9999 74.1221C68.1676 72.4137 65.5533 70.9781 60.4999 70.1221C56.0678 69.3713 53.494 69.5182 48.9999 69.6221C46.0653 69.6899 41.4999 70.1221 41.4999 70.1221Z" fill="white" stroke="black"/>
<path d="M49.5001 45.6222C47.279 47.7666 45.1199 49.0371 45.0001 52.1222C44.9376 53.7311 45.0388 54.8304 46.0001 56.1222C46.8407 57.2518 47.6836 57.6226 49.0001 58.1222C50.291 58.6121 51.1243 58.7385 52.5001 58.6222C54.1625 58.4817 55.0227 57.8972 56.5001 57.1222C57.747 56.4681 59.5001 55.1222 59.5001 55.1222C59.5001 55.1222 60.6014 57.3296 61.5001 58.6222C62.5277 60.1003 63.2702 60.8075 64.5001 62.1222C65.4433 63.1305 65.9337 63.7451 67.0001 64.6222C68.4228 65.7923 69.3444 66.3147 71.0001 67.1222C72.4996 67.8534 73.3501 68.3754 75.0001 68.6222C76.9409 68.9124 78.104 68.6277 80.0001 68.1222C81.8583 67.6267 82.8359 67.086 84.5001 66.1222C87.1395 64.5935 90.5001 61.1222 90.5001 61.1222H94.0001C94.0001 61.1222 95.4681 62.7049 96.5001 63.6222C97.9595 64.9194 98.719 65.8218 100.5 66.6222C102.142 67.3601 103.223 67.335 105 67.6222C107.195 67.9769 108.453 68.2593 110.673 68.1222C113.207 67.9656 114.581 67.394 117 66.6222C118.589 66.1151 119.528 65.9071 121 65.1222C122.723 64.2034 123.581 63.4635 125 62.1222C126.308 60.8855 128 58.6222 128 58.6222C128 58.6222 128.777 60.8229 129.5 62.1222C130.45 63.8282 130.959 64.9228 132.5 66.1222C134.304 67.526 135.719 68.2651 138 68.1222C139.665 68.0178 140.691 67.6565 142 66.6222C143.445 65.4801 144.141 64.429 144.5 62.6222C144.888 60.669 144.162 59.5002 143.5 57.6222C142.509 54.8112 141.358 53.4528 139.5 51.1222C137.779 48.9629 136.564 47.9568 134.5 46.1222C131.581 43.5277 130.198 41.3765 126.5 40.1222C123.351 39.0541 121.3 39.214 118 39.6222C115.179 39.9712 113.622 40.5221 111 41.6222C107.85 42.9438 106.62 44.7322 103.5 46.1222C100.51 47.4542 98.7353 48.1249 95.5001 48.6222C92.2192 49.1265 90.2283 49.3951 87.0001 48.6222C84.2812 47.9712 83.0429 46.7842 80.5001 45.6222C76.6051 43.8423 74.608 42.3322 70.5001 41.1222C67.451 40.224 65.6731 39.4327 62.5001 39.6222C59.6621 39.7916 58.0797 40.4269 55.5001 41.6222C52.9449 42.8061 51.526 43.6661 49.5001 45.6222Z" fill="white" stroke="black"/>
<path d="M147 82.622C147.734 84.4733 148 87.622 148 87.622L145 88.622C143.243 89.2078 142.292 89.6518 140.5 90.122C138.388 90.6761 137.153 90.7584 135 91.122C132.468 91.5498 131.067 92.0307 128.5 92.122C125.16 92.2408 123.248 91.9102 120 91.122C117.179 90.4375 115.666 89.7696 113 88.622C110.594 87.5863 109.269 86.9318 107 85.622C104.561 84.214 103.222 83.3522 101 81.622C99.5796 80.516 97.5 78.622 97.5 78.622C97.5 78.622 97.9477 77.622 98.5 77.622C99.5 77.6221 101.243 77.5 103 77.5C104.757 77.5 105.244 77.4375 107 77.5C109.35 77.5836 110.67 77.1875 113 77.5C115.164 77.7901 117.088 78.0682 119 79.122C121.5 80.5 125 84.5 125 84.5C125 84.5 126.828 79.7078 128 79.122C129.562 78.341 130.366 77.7396 132 77.122L132.025 77.1125C133.339 76.6156 134.102 76.3271 135.5 76.122C137.046 75.8951 137.978 75.7691 139.5 76.122C140.524 76.3595 141.062 76.6466 142 77.122C143.256 77.7586 144.026 78.1054 145 79.122C146.089 80.2586 146.42 81.1585 147 82.622Z" fill="white" stroke="black"/>
</svg>
